<svg width="32" height="32" viewBox="0 0 32 32" fill="none" xmlns="http://www.w3.org/2000/svg">
<g clip-path="url(#clip0_105_29)">
<path d="M16 0C7.163 0 0 7.163 0 16C0 24.836 7.163 32 16 32C24.837 32 32 24.836 32 16C32 7.163 24.837 0 16 0Z" fill="#333333"/>
<path d="M13.6901 24.9032H17.3691V15.9992H19.8231L20.1481 12.9312H17.3691L17.373 11.3952C17.373 10.5952 17.4491 10.1662 18.5971 10.1662H20.1311V7.09717H17.6761C14.7271 7.09717 13.6901 8.58617 13.6901 11.0892V12.9312H11.8521V16.0002H13.6901V24.9032Z" fill="#FFF8F0"/>
</g>
<defs>
<clipPath id="clip0_105_29">
<rect width="32" height="32" fill="white"/>
</clipPath>
</defs>
</svg>
