<svg width="32" height="32" viewBox="0 0 32 32" fill="none" xmlns="http://www.w3.org/2000/svg">
<g clip-path="url(#clip0_105_34)">
<path d="M16 0C7.163 0 0 7.163 0 16C0 24.836 7.163 32 16 32C24.837 32 32 24.836 32 16C32 7.163 24.837 0 16 0Z" fill="#333333"/>
<path d="M22.0569 7.93018H9.94295C8.80295 7.93018 7.92395 8.80918 7.92395 9.94918V22.0622C7.92395 23.2022 8.80295 24.0812 9.94295 24.0812H22.056C23.196 24.0812 24.075 23.2022 24.075 22.0622V9.94918C24.076 8.80818 23.1959 7.93018 22.0569 7.93018ZM16.0119 12.8332C17.8029 12.8332 19.2549 14.2402 19.2549 15.9752C19.2549 17.7102 17.8029 19.1172 16.0119 19.1172C14.2219 19.1172 12.77 17.7092 12.77 15.9752C12.77 14.2392 14.2219 12.8332 16.0119 12.8332ZM22.0569 21.5572C22.0569 21.9112 21.906 22.0622 21.552 22.0622H10.448C10.095 22.0622 9.94295 21.9112 9.94295 21.5572V14.4912L11.201 14.7652C11.066 15.2042 10.993 15.6682 10.993 16.1502C10.993 18.8342 13.241 21.0132 16.011 21.0132C18.783 21.0132 21.03 18.8352 21.03 16.1502C21.03 15.6682 20.957 15.2042 20.822 14.7652L22.056 14.4912L22.0569 21.5572ZM22.0569 12.4722C22.0569 12.7512 21.831 12.9772 21.552 12.9772H19.533C19.254 12.9772 19.028 12.7512 19.028 12.4722V10.4532C19.028 10.1742 19.254 9.94818 19.533 9.94818H21.552C21.831 9.94818 22.0569 10.1742 22.0569 10.4532V12.4722Z" fill="#FFF8F0"/>
</g>
<defs>
<clipPath id="clip0_105_34">
<rect width="32" height="32" fill="white"/>
</clipPath>
</defs>
</svg>
