<svg width="32" height="32" viewBox="0 0 32 32" fill="none" xmlns="http://www.w3.org/2000/svg">
<g clip-path="url(#clip0_105_54)">
<path d="M16 0C7.163 0 0 7.163 0 16C0 24.837 7.164 32 16 32C24.837 32 32 24.837 32 16C32 7.163 24.837 0 16 0ZM18.067 18.96C18.4 19.249 18.659 20.268 18.659 20.736V24.88H16.294H13.926C13.926 24.88 13.933 23.475 13.926 22.512C10.686 23.209 9.782 20.736 9.782 20.736C9.19 19.552 8.598 18.96 8.598 18.96C7.414 18.257 8.598 18.368 8.598 18.368C9.782 18.368 10.374 19.552 10.374 19.552C11.413 21.316 13.262 21.032 13.926 20.736C13.926 20.144 14.185 19.249 14.518 18.96C11.932 18.669 9.78 17.184 9.78 14.224C9.78 11.264 10.374 10.672 10.966 10.08C10.846 9.788 10.351 8.71 10.984 7.12C10.984 7.12 12.147 7.12 13.331 8.896C13.918 8.309 15.699 8.304 16.292 8.304C16.883 8.304 18.665 8.309 19.251 8.896C20.435 7.12 21.601 7.12 21.601 7.12C22.234 8.71 21.739 9.788 21.619 10.08C22.211 10.672 22.803 11.264 22.803 14.224C22.804 17.184 20.654 18.669 18.067 18.96Z" fill="#333333"/>
</g>
<defs>
<clipPath id="clip0_105_54">
<rect width="32" height="32" fill="white"/>
</clipPath>
</defs>
</svg>
